<svg width="123" height="30" viewBox="0 0 123 30" fill="none" xmlns="http://www.w3.org/2000/svg">
<path d="M3.43813 3.08L0.078125 2.2C0.078125 1.4 0.278125 0.999998 0.678125 0.999998C1.13146 0.999998 2.61146 1.05333 5.11813 1.16L13.2781 0.52C17.0915 0.52 20.2248 1.73333 22.6781 4.16C25.1581 6.56 26.3981 10.1067 26.3981 14.8C26.3981 19.4667 25.1448 23.04 22.6381 25.52C20.1581 28 16.8248 29.24 12.6381 29.24L5.11813 28.68L0.678125 29C0.278125 29 0.078125 28.6 0.078125 27.8L3.43813 26.92V3.08ZM13.0381 27.36C15.9715 27.36 18.3448 26.3067 20.1581 24.2C21.9715 22.0933 22.8781 19.04 22.8781 15.04C22.8781 11.0133 21.9715 7.94667 20.1581 5.84C18.3448 3.73333 15.9715 2.68 13.0381 2.68C10.7448 2.68 8.53146 2.93333 6.39813 3.44L6.79813 15L6.39813 26.56C8.79813 27.0933 11.0115 27.36 13.0381 27.36ZM32.96 27.2L35.64 27.76C35.64 28.5867 35.4 29 34.92 29C34.7067 29 33.5467 28.96 31.44 28.88L28.68 29C28.2267 29 28 28.6 28 27.8L30.32 27.2L37.08 9.44H39.68L46.52 27.16L48.84 27.8C48.84 28.6 48.6 29 48.12 29C47.6667 29 46.6 28.96 44.92 28.88L41.44 29C40.96 29 40.72 28.5867 40.72 27.76L43.44 27.2L41.84 22.76L34.4 23.16L32.96 27.2ZM38.12 12.52L35.08 21.08H41.2L38.12 12.52ZM64.9394 9.44L68.6994 9.56L71.4194 9.44C71.8727 9.49333 72.0994 9.90667 72.0994 10.68L69.8194 11.28L69.6994 29H67.8994L55.4994 13.6C55.526 15.0933 55.5794 17.36 55.6594 20.4C55.7394 23.4133 55.7927 25.68 55.8194 27.2C56.486 27.36 57.5394 27.5467 58.9794 27.76C58.9794 28.5867 58.7394 29 58.2594 29L54.5794 28.76L51.5794 29C51.0994 29 50.8594 28.5867 50.8594 27.76L53.4994 27.16L53.3794 11.28L50.8594 10.72C50.8594 9.86667 51.0994 9.44 51.5794 9.44C51.9527 9.44 53.3527 9.48 55.7794 9.56L67.6594 24.6L67.4194 11.28L64.2594 10.72C64.2594 9.86667 64.486 9.44 64.9394 9.44ZM78.8538 11.24L76.2938 10.68C76.2938 9.85333 76.5338 9.44 77.0138 9.44C77.4138 9.44 78.5204 9.48 80.3338 9.56L83.5738 9.44C84.0271 9.44 84.2538 9.84 84.2538 10.64L81.6938 11.24V27.2L84.2538 27.76C84.2538 28.5867 84.0271 29 83.5738 29L80.3338 28.76L77.0138 29C76.5338 29 76.2938 28.5867 76.2938 27.76L78.8538 27.2V11.24ZM102.558 29L92.6775 28.76L89.3575 29C88.8775 29 88.6375 28.5867 88.6375 27.76L91.1975 27.2V11.24L88.6375 10.68C88.6375 9.85333 88.8775 9.44 89.3575 9.44C89.7575 9.44 90.8642 9.48 92.6775 9.56L102.358 9.44C102.891 9.44 103.224 9.49333 103.358 9.6C103.491 9.68 103.558 9.81333 103.558 10L102.838 14.24C101.744 14.24 101.198 14.04 101.198 13.64V11.32L93.8775 11.4L94.2375 18.04H101.638V19.68L94.1975 20.12L93.8775 27.04H101.558L102.238 24.76C102.318 24.4667 102.464 24.28 102.678 24.2C102.918 24.12 103.331 24.08 103.918 24.08L103.678 28.52C103.624 28.84 103.251 29 102.558 29ZM120.774 29L111.974 28.76L108.654 29C108.174 29 107.934 28.5867 107.934 27.76L110.494 27.2V11.24L107.934 10.68C107.934 9.85333 108.174 9.44 108.654 9.44L111.974 9.56L115.214 9.44C115.668 9.44 115.894 9.84 115.894 10.64L113.334 11.24V27.04H119.774L120.454 24.76C120.534 24.4667 120.681 24.28 120.894 24.2C121.134 24.12 121.548 24.08 122.134 24.08L121.894 28.52C121.841 28.84 121.468 29 120.774 29Z" fill="black"/>
</svg>
